G04 #@! TF.FileFunction,Soldermask,Top*
%FSLAX46Y46*%
G04 Gerber Fmt 4.6, Leading zero omitted, Abs format (unit mm)*
G04 Created by KiCad (PCBNEW 4.0.7) date 11/01/17 18:21:12*
%MOMM*%
%LPD*%
G01*
G04 APERTURE LIST*
%ADD10C,0.100000*%
%ADD11C,0.300000*%
%ADD12C,0.400000*%
%ADD13R,1.150000X1.200000*%
%ADD14O,4.400000X2.000000*%
%ADD15C,1.400000*%
%ADD16R,2.400000X1.600000*%
%ADD17R,2.400000X2.400000*%
%ADD18R,1.200000X1.150000*%
%ADD19R,0.900000X1.300000*%
G04 APERTURE END LIST*
D10*
D11*
X120150000Y-106500000D02*
X120150000Y-107000000D01*
X119475000Y-102850000D02*
X120025000Y-102850000D01*
X113000000Y-111150000D02*
X112500000Y-111150000D01*
X111850000Y-110000000D02*
X111850000Y-110500000D01*
D12*
X112750000Y-103750000D03*
X113400000Y-103750000D03*
X114050000Y-103750000D03*
X114700000Y-103750000D03*
X115350000Y-103750000D03*
X116000000Y-103750000D03*
X116650000Y-103750000D03*
X117300000Y-103750000D03*
X117950000Y-103750000D03*
X118600000Y-103750000D03*
X119250000Y-103750000D03*
X112750000Y-104400000D03*
X113400000Y-104400000D03*
X114050000Y-104400000D03*
X114700000Y-104400000D03*
X115350000Y-104400000D03*
X116000000Y-104400000D03*
X116650000Y-104400000D03*
X117300000Y-104400000D03*
X117950000Y-104400000D03*
X118600000Y-104400000D03*
X119250000Y-104400000D03*
X112750000Y-105050000D03*
X113400000Y-105050000D03*
X114050000Y-105050000D03*
X114700000Y-105050000D03*
X115350000Y-105050000D03*
X116000000Y-105050000D03*
X116650000Y-105050000D03*
X117300000Y-105050000D03*
X117950000Y-105050000D03*
X118600000Y-105050000D03*
X119250000Y-105050000D03*
X112750000Y-105700000D03*
X113400000Y-105700000D03*
X114050000Y-105700000D03*
X114700000Y-105700000D03*
X115350000Y-105700000D03*
X116000000Y-105700000D03*
X116650000Y-105700000D03*
X117300000Y-105700000D03*
X117950000Y-105700000D03*
X118600000Y-105700000D03*
X119250000Y-105700000D03*
X112750000Y-106350000D03*
X113400000Y-106350000D03*
X114050000Y-106350000D03*
X114700000Y-106350000D03*
X115350000Y-106350000D03*
X116000000Y-106350000D03*
X116650000Y-106350000D03*
X117300000Y-106350000D03*
X117950000Y-106350000D03*
X118600000Y-106350000D03*
X119250000Y-106350000D03*
X112750000Y-107000000D03*
X113400000Y-107000000D03*
X114050000Y-107000000D03*
X114700000Y-107000000D03*
X115350000Y-107000000D03*
X116000000Y-107000000D03*
X116650000Y-107000000D03*
X117300000Y-107000000D03*
X117950000Y-107000000D03*
X118600000Y-107000000D03*
X119250000Y-107000000D03*
X112750000Y-107650000D03*
X113400000Y-107650000D03*
X114050000Y-107650000D03*
X114700000Y-107650000D03*
X115350000Y-107650000D03*
X116000000Y-107650000D03*
X116650000Y-107650000D03*
X117300000Y-107650000D03*
X117950000Y-107650000D03*
X118600000Y-107650000D03*
X119250000Y-107650000D03*
X112750000Y-108300000D03*
X113400000Y-108300000D03*
X114050000Y-108300000D03*
X114700000Y-108300000D03*
X115350000Y-108300000D03*
X116000000Y-108300000D03*
X116650000Y-108300000D03*
X117300000Y-108300000D03*
X117950000Y-108300000D03*
X118600000Y-108300000D03*
X119250000Y-108300000D03*
X112750000Y-108950000D03*
X113400000Y-108950000D03*
X114050000Y-108950000D03*
X114700000Y-108950000D03*
X115350000Y-108950000D03*
X116000000Y-108950000D03*
X116650000Y-108950000D03*
X117300000Y-108950000D03*
X117950000Y-108950000D03*
X118600000Y-108950000D03*
X119250000Y-108950000D03*
X112750000Y-109600000D03*
X113400000Y-109600000D03*
X114050000Y-109600000D03*
X114700000Y-109600000D03*
X115350000Y-109600000D03*
X116000000Y-109600000D03*
X116650000Y-109600000D03*
X117300000Y-109600000D03*
X117950000Y-109600000D03*
X118600000Y-109600000D03*
X119250000Y-109600000D03*
X112750000Y-110250000D03*
X113400000Y-110250000D03*
X114050000Y-110250000D03*
X114700000Y-110250000D03*
X115350000Y-110250000D03*
X116000000Y-110250000D03*
X116650000Y-110250000D03*
X117300000Y-110250000D03*
X117950000Y-110250000D03*
X118600000Y-110250000D03*
X119250000Y-110250000D03*
D13*
X110800000Y-105600000D03*
X110800000Y-104100000D03*
D14*
X102700000Y-112700000D03*
D15*
X102700000Y-109250000D03*
D16*
X105300000Y-110500000D03*
X105300000Y-108000000D03*
X105300000Y-106000000D03*
X105300000Y-103500000D03*
D15*
X102700000Y-104750000D03*
D14*
X102700000Y-101300000D03*
D17*
X132000000Y-109500000D03*
X132000000Y-104500000D03*
D18*
X111950000Y-112200000D03*
X110450000Y-112200000D03*
X116250000Y-112200000D03*
X117750000Y-112200000D03*
X117900000Y-101900000D03*
X119400000Y-101900000D03*
X114915000Y-101240000D03*
X116415000Y-101240000D03*
X113450000Y-101900000D03*
X111950000Y-101900000D03*
D13*
X121200000Y-109950000D03*
X121200000Y-108450000D03*
D18*
X110550000Y-110200000D03*
X109050000Y-110200000D03*
D19*
X109250000Y-106000000D03*
X107750000Y-106000000D03*
X109250000Y-108000000D03*
X107750000Y-108000000D03*
M02*
