G04 #@! TF.FileFunction,Copper,L2,Bot,Signal*
%FSLAX46Y46*%
G04 Gerber Fmt 4.6, Leading zero omitted, Abs format (unit mm)*
G04 Created by KiCad (PCBNEW 4.0.7) date 11/01/17 18:21:12*
%MOMM*%
%LPD*%
G01*
G04 APERTURE LIST*
%ADD10C,0.100000*%
%ADD11O,4.000000X1.600000*%
%ADD12C,1.000000*%
%ADD13C,0.355600*%
%ADD14C,0.254000*%
G04 APERTURE END LIST*
D10*
D11*
X102700000Y-112700000D03*
D12*
X102700000Y-109250000D03*
X102700000Y-104750000D03*
D11*
X102700000Y-101300000D03*
D13*
X108000000Y-110200000D03*
X109300000Y-112200000D03*
X118900000Y-112200000D03*
X122500000Y-108450000D03*
X120600000Y-101900000D03*
X117400000Y-100900000D03*
X110800000Y-103000000D03*
X110800000Y-101900000D03*
X107000000Y-103500000D03*
X116980000Y-107330000D03*
X116320000Y-107320000D03*
X116980000Y-107980000D03*
X116320000Y-107970000D03*
X118920000Y-109280000D03*
X116320000Y-109930000D03*
X114370000Y-108620000D03*
D14*
G36*
X100710551Y-100554709D02*
X100482073Y-100896652D01*
X100401842Y-101300000D01*
X100482073Y-101703348D01*
X100710551Y-102045291D01*
X101052494Y-102273769D01*
X101455842Y-102354000D01*
X103944158Y-102354000D01*
X104347506Y-102273769D01*
X104689449Y-102045291D01*
X104917927Y-101703348D01*
X104998158Y-101300000D01*
X104917927Y-100896652D01*
X104689449Y-100554709D01*
X104351650Y-100329000D01*
X136671000Y-100329000D01*
X136671000Y-102000000D01*
X136696044Y-102125903D01*
X136767362Y-102232638D01*
X136874097Y-102303956D01*
X137000000Y-102329000D01*
X137671000Y-102329000D01*
X137671000Y-111671000D01*
X137000000Y-111671000D01*
X136874097Y-111696044D01*
X136767362Y-111767362D01*
X136696044Y-111874097D01*
X136671000Y-112000000D01*
X136671000Y-113671000D01*
X104351650Y-113671000D01*
X104689449Y-113445291D01*
X104917927Y-113103348D01*
X104998158Y-112700000D01*
X104917927Y-112296652D01*
X104689449Y-111954709D01*
X104347506Y-111726231D01*
X103944158Y-111646000D01*
X101455842Y-111646000D01*
X101052494Y-111726231D01*
X100710551Y-111954709D01*
X100482073Y-112296652D01*
X100401842Y-112700000D01*
X100482073Y-113103348D01*
X100710551Y-113445291D01*
X101048350Y-113671000D01*
X100329000Y-113671000D01*
X100329000Y-109399322D01*
X101945869Y-109399322D01*
X102060417Y-109676549D01*
X102272336Y-109888838D01*
X102549362Y-110003869D01*
X102849322Y-110004131D01*
X103126549Y-109889583D01*
X103338838Y-109677664D01*
X103453869Y-109400638D01*
X103454131Y-109100678D01*
X103339583Y-108823451D01*
X103127664Y-108611162D01*
X102850638Y-108496131D01*
X102550678Y-108495869D01*
X102273451Y-108610417D01*
X102061162Y-108822336D01*
X101946131Y-109099362D01*
X101945869Y-109399322D01*
X100329000Y-109399322D01*
X100329000Y-104899322D01*
X101945869Y-104899322D01*
X102060417Y-105176549D01*
X102272336Y-105388838D01*
X102549362Y-105503869D01*
X102849322Y-105504131D01*
X103126549Y-105389583D01*
X103338838Y-105177664D01*
X103453869Y-104900638D01*
X103454131Y-104600678D01*
X103339583Y-104323451D01*
X103127664Y-104111162D01*
X102850638Y-103996131D01*
X102550678Y-103995869D01*
X102273451Y-104110417D01*
X102061162Y-104322336D01*
X101946131Y-104599362D01*
X101945869Y-104899322D01*
X100329000Y-104899322D01*
X100329000Y-100329000D01*
X101048350Y-100329000D01*
X100710551Y-100554709D01*
X100710551Y-100554709D01*
G37*
X100710551Y-100554709D02*
X100482073Y-100896652D01*
X100401842Y-101300000D01*
X100482073Y-101703348D01*
X100710551Y-102045291D01*
X101052494Y-102273769D01*
X101455842Y-102354000D01*
X103944158Y-102354000D01*
X104347506Y-102273769D01*
X104689449Y-102045291D01*
X104917927Y-101703348D01*
X104998158Y-101300000D01*
X104917927Y-100896652D01*
X104689449Y-100554709D01*
X104351650Y-100329000D01*
X136671000Y-100329000D01*
X136671000Y-102000000D01*
X136696044Y-102125903D01*
X136767362Y-102232638D01*
X136874097Y-102303956D01*
X137000000Y-102329000D01*
X137671000Y-102329000D01*
X137671000Y-111671000D01*
X137000000Y-111671000D01*
X136874097Y-111696044D01*
X136767362Y-111767362D01*
X136696044Y-111874097D01*
X136671000Y-112000000D01*
X136671000Y-113671000D01*
X104351650Y-113671000D01*
X104689449Y-113445291D01*
X104917927Y-113103348D01*
X104998158Y-112700000D01*
X104917927Y-112296652D01*
X104689449Y-111954709D01*
X104347506Y-111726231D01*
X103944158Y-111646000D01*
X101455842Y-111646000D01*
X101052494Y-111726231D01*
X100710551Y-111954709D01*
X100482073Y-112296652D01*
X100401842Y-112700000D01*
X100482073Y-113103348D01*
X100710551Y-113445291D01*
X101048350Y-113671000D01*
X100329000Y-113671000D01*
X100329000Y-109399322D01*
X101945869Y-109399322D01*
X102060417Y-109676549D01*
X102272336Y-109888838D01*
X102549362Y-110003869D01*
X102849322Y-110004131D01*
X103126549Y-109889583D01*
X103338838Y-109677664D01*
X103453869Y-109400638D01*
X103454131Y-109100678D01*
X103339583Y-108823451D01*
X103127664Y-108611162D01*
X102850638Y-108496131D01*
X102550678Y-108495869D01*
X102273451Y-108610417D01*
X102061162Y-108822336D01*
X101946131Y-109099362D01*
X101945869Y-109399322D01*
X100329000Y-109399322D01*
X100329000Y-104899322D01*
X101945869Y-104899322D01*
X102060417Y-105176549D01*
X102272336Y-105388838D01*
X102549362Y-105503869D01*
X102849322Y-105504131D01*
X103126549Y-105389583D01*
X103338838Y-105177664D01*
X103453869Y-104900638D01*
X103454131Y-104600678D01*
X103339583Y-104323451D01*
X103127664Y-104111162D01*
X102850638Y-103996131D01*
X102550678Y-103995869D01*
X102273451Y-104110417D01*
X102061162Y-104322336D01*
X101946131Y-104599362D01*
X101945869Y-104899322D01*
X100329000Y-104899322D01*
X100329000Y-100329000D01*
X101048350Y-100329000D01*
X100710551Y-100554709D01*
M02*
