M48
;DRILL file {KiCad 4.0.7} date 11/01/17 18:21:10
;FORMAT={3:3/ absolute / metric / suppress trailing zeros}
FMAT,2
METRIC,LZ
T1C0.203
T2C1.000
%
G90
G05
M71
T1
X107Y-1035
X108Y-1102
X1093Y-1122
X1108Y-1019
X1108Y-103
X11437Y-10862
X11632Y-10732
X11632Y-10797
X11632Y-10993
X11698Y-10733
X11698Y-10798
X1174Y-1009
X1189Y-1122
X11892Y-10928
X1206Y-1019
X1225Y-10845
T2
X1027Y-10475
X1027Y-10925
T2
X10345Y-1013G85X10195Y-1013
G05
X10345Y-1127G85X10195Y-1127
G05
T0
M30
