G04 #@! TF.FileFunction,Copper,L1,Top,Signal*
%FSLAX46Y46*%
G04 Gerber Fmt 4.6, Leading zero omitted, Abs format (unit mm)*
G04 Created by KiCad (PCBNEW 4.0.7) date 11/01/17 18:21:12*
%MOMM*%
%LPD*%
G01*
G04 APERTURE LIST*
%ADD10C,0.100000*%
%ADD11C,0.304800*%
%ADD12R,0.750000X0.800000*%
%ADD13O,4.000000X1.600000*%
%ADD14C,1.000000*%
%ADD15R,2.000000X1.200000*%
%ADD16R,2.000000X2.000000*%
%ADD17R,0.800000X0.750000*%
%ADD18R,0.500000X0.900000*%
%ADD19C,0.355600*%
%ADD20C,0.127000*%
%ADD21C,0.254000*%
%ADD22C,0.125000*%
G04 APERTURE END LIST*
D10*
D11*
X112750000Y-103750000D03*
X113400000Y-103750000D03*
X114050000Y-103750000D03*
X114700000Y-103750000D03*
X115350000Y-103750000D03*
X116000000Y-103750000D03*
X116650000Y-103750000D03*
X117300000Y-103750000D03*
X117950000Y-103750000D03*
X118600000Y-103750000D03*
X119250000Y-103750000D03*
X112750000Y-104400000D03*
X113400000Y-104400000D03*
X114050000Y-104400000D03*
X114700000Y-104400000D03*
X115350000Y-104400000D03*
X116000000Y-104400000D03*
X116650000Y-104400000D03*
X117300000Y-104400000D03*
X117950000Y-104400000D03*
X118600000Y-104400000D03*
X119250000Y-104400000D03*
X112750000Y-105050000D03*
X113400000Y-105050000D03*
X114050000Y-105050000D03*
X114700000Y-105050000D03*
X115350000Y-105050000D03*
X116000000Y-105050000D03*
X116650000Y-105050000D03*
X117300000Y-105050000D03*
X117950000Y-105050000D03*
X118600000Y-105050000D03*
X119250000Y-105050000D03*
X112750000Y-105700000D03*
X113400000Y-105700000D03*
X114050000Y-105700000D03*
X114700000Y-105700000D03*
X115350000Y-105700000D03*
X116000000Y-105700000D03*
X116650000Y-105700000D03*
X117300000Y-105700000D03*
X117950000Y-105700000D03*
X118600000Y-105700000D03*
X119250000Y-105700000D03*
X112750000Y-106350000D03*
X113400000Y-106350000D03*
X114050000Y-106350000D03*
X114700000Y-106350000D03*
X115350000Y-106350000D03*
X116000000Y-106350000D03*
X116650000Y-106350000D03*
X117300000Y-106350000D03*
X117950000Y-106350000D03*
X118600000Y-106350000D03*
X119250000Y-106350000D03*
X112750000Y-107000000D03*
X113400000Y-107000000D03*
X114050000Y-107000000D03*
X114700000Y-107000000D03*
X115350000Y-107000000D03*
X116000000Y-107000000D03*
X116650000Y-107000000D03*
X117300000Y-107000000D03*
X117950000Y-107000000D03*
X118600000Y-107000000D03*
X119250000Y-107000000D03*
X112750000Y-107650000D03*
X113400000Y-107650000D03*
X114050000Y-107650000D03*
X114700000Y-107650000D03*
X115350000Y-107650000D03*
X116000000Y-107650000D03*
X116650000Y-107650000D03*
X117300000Y-107650000D03*
X117950000Y-107650000D03*
X118600000Y-107650000D03*
X119250000Y-107650000D03*
X112750000Y-108300000D03*
X113400000Y-108300000D03*
X114050000Y-108300000D03*
X114700000Y-108300000D03*
X115350000Y-108300000D03*
X116000000Y-108300000D03*
X116650000Y-108300000D03*
X117300000Y-108300000D03*
X117950000Y-108300000D03*
X118600000Y-108300000D03*
X119250000Y-108300000D03*
X112750000Y-108950000D03*
X113400000Y-108950000D03*
X114050000Y-108950000D03*
X114700000Y-108950000D03*
X115350000Y-108950000D03*
X116000000Y-108950000D03*
X116650000Y-108950000D03*
X117300000Y-108950000D03*
X117950000Y-108950000D03*
X118600000Y-108950000D03*
X119250000Y-108950000D03*
X112750000Y-109600000D03*
X113400000Y-109600000D03*
X114050000Y-109600000D03*
X114700000Y-109600000D03*
X115350000Y-109600000D03*
X116000000Y-109600000D03*
X116650000Y-109600000D03*
X117300000Y-109600000D03*
X117950000Y-109600000D03*
X118600000Y-109600000D03*
X119250000Y-109600000D03*
X112750000Y-110250000D03*
X113400000Y-110250000D03*
X114050000Y-110250000D03*
X114700000Y-110250000D03*
X115350000Y-110250000D03*
X116000000Y-110250000D03*
X116650000Y-110250000D03*
X117300000Y-110250000D03*
X117950000Y-110250000D03*
X118600000Y-110250000D03*
X119250000Y-110250000D03*
D12*
X110800000Y-105600000D03*
X110800000Y-104100000D03*
D13*
X102700000Y-112700000D03*
D14*
X102700000Y-109250000D03*
D15*
X105300000Y-110500000D03*
X105300000Y-108000000D03*
X105300000Y-106000000D03*
X105300000Y-103500000D03*
D14*
X102700000Y-104750000D03*
D13*
X102700000Y-101300000D03*
D16*
X132000000Y-109500000D03*
X132000000Y-104500000D03*
D17*
X111950000Y-112200000D03*
X110450000Y-112200000D03*
X116250000Y-112200000D03*
X117750000Y-112200000D03*
X117900000Y-101900000D03*
X119400000Y-101900000D03*
X114915000Y-101240000D03*
X116415000Y-101240000D03*
X113450000Y-101900000D03*
X111950000Y-101900000D03*
D12*
X121200000Y-109950000D03*
X121200000Y-108450000D03*
D17*
X110550000Y-110200000D03*
X109050000Y-110200000D03*
D18*
X109250000Y-106000000D03*
X107750000Y-106000000D03*
X109250000Y-108000000D03*
X107750000Y-108000000D03*
D19*
X108000000Y-110200000D03*
X109300000Y-112200000D03*
X118900000Y-112200000D03*
X122500000Y-108450000D03*
X120600000Y-101900000D03*
X117400000Y-100900000D03*
X110800000Y-103000000D03*
X110800000Y-101900000D03*
X107000000Y-103500000D03*
X116980000Y-107330000D03*
X116320000Y-107320000D03*
X116980000Y-107980000D03*
X116320000Y-107970000D03*
X118920000Y-109280000D03*
X116320000Y-109930000D03*
X114370000Y-108620000D03*
D20*
X111850000Y-110000000D02*
X111850000Y-110500000D01*
X120150000Y-106500000D02*
X120150000Y-107000000D01*
X119500000Y-102850000D02*
X120000000Y-102850000D01*
X112500000Y-111150000D02*
X113000000Y-111150000D01*
X111950000Y-112200000D02*
X112273303Y-112200000D01*
X112273303Y-112200000D02*
X113228610Y-111244693D01*
X113228610Y-111244693D02*
X113228610Y-110548512D01*
X113228610Y-110548512D02*
X113082499Y-110402401D01*
X113082499Y-110402401D02*
X113082499Y-109267501D01*
X113082499Y-109267501D02*
X113247601Y-109102399D01*
X113247601Y-109102399D02*
X113400000Y-108950000D01*
D21*
X109454000Y-113400000D02*
X110725000Y-113400000D01*
X111925000Y-112200000D02*
X111950000Y-112200000D01*
X110725000Y-113400000D02*
X111925000Y-112200000D01*
X106554000Y-110500000D02*
X109454000Y-113400000D01*
X105300000Y-110500000D02*
X106554000Y-110500000D01*
D20*
X113400000Y-108950000D02*
X113400000Y-108973642D01*
X116650000Y-107000000D02*
X116980000Y-107330000D01*
X116000000Y-107000000D02*
X116320000Y-107320000D01*
X116650000Y-107650000D02*
X116980000Y-107980000D01*
X116000000Y-107650000D02*
X116320000Y-107970000D01*
X118600000Y-109600000D02*
X118920000Y-109280000D01*
X116000000Y-110250000D02*
X116320000Y-109930000D01*
X114050000Y-108300000D02*
X114370000Y-108620000D01*
D21*
X111950000Y-101900000D02*
X110800000Y-101900000D01*
X119400000Y-101900000D02*
X120600000Y-101900000D01*
X116415000Y-101240000D02*
X117060000Y-101240000D01*
X117060000Y-101240000D02*
X117400000Y-100900000D01*
X121200000Y-108450000D02*
X122500000Y-108450000D01*
X117750000Y-112200000D02*
X118900000Y-112200000D01*
X110450000Y-112200000D02*
X109300000Y-112200000D01*
X110800000Y-103446000D02*
X110800000Y-103000000D01*
X110800000Y-104100000D02*
X110800000Y-103446000D01*
X109050000Y-110200000D02*
X108000000Y-110200000D01*
X105300000Y-103500000D02*
X107000000Y-103500000D01*
D20*
X118600000Y-109600000D02*
X118605000Y-109600000D01*
D21*
X116000000Y-110250000D02*
X116024106Y-110250000D01*
D20*
X114050000Y-108300000D02*
X114050000Y-108324106D01*
X115350000Y-106350000D02*
X115350000Y-107320000D01*
X113732499Y-108437403D02*
X113732499Y-107497599D01*
X115350000Y-107320000D02*
X115350000Y-107650000D01*
X113552401Y-108617501D02*
X113732499Y-108437403D01*
X112750000Y-108950000D02*
X113082499Y-108617501D01*
X113082499Y-108617501D02*
X113552401Y-108617501D01*
X113732499Y-107497599D02*
X113910098Y-107320000D01*
X113910098Y-107320000D02*
X115350000Y-107320000D01*
X116650000Y-106350000D02*
X116332499Y-106032499D01*
X116332499Y-103442501D02*
X117875000Y-101900000D01*
X116332499Y-106032499D02*
X116332499Y-103442501D01*
X117875000Y-101900000D02*
X117900000Y-101900000D01*
X116000000Y-106350000D02*
X115682499Y-106032499D01*
X115682499Y-106032499D02*
X115682499Y-102509499D01*
X115682499Y-102509499D02*
X114915000Y-101742000D01*
X114915000Y-101742000D02*
X114915000Y-101240000D01*
X115350000Y-106350000D02*
X115017501Y-106017501D01*
X115017501Y-106017501D02*
X115017501Y-103442501D01*
X115017501Y-103442501D02*
X113475000Y-101900000D01*
X113475000Y-101900000D02*
X113450000Y-101900000D01*
X115350000Y-106350000D02*
X116650000Y-106350000D01*
X115032499Y-107967501D02*
X115197601Y-107802399D01*
X115197601Y-107802399D02*
X115350000Y-107650000D01*
X115017501Y-107982499D02*
X115350000Y-107650000D01*
X119080000Y-110730000D02*
X119918000Y-110730000D01*
X119918000Y-110730000D02*
X120698000Y-109950000D01*
X120698000Y-109950000D02*
X121200000Y-109950000D01*
X118600000Y-110250000D02*
X119080000Y-110730000D01*
X115017501Y-110700000D02*
X115017501Y-111832499D01*
X115017501Y-107982499D02*
X115017501Y-110700000D01*
X115017501Y-110700000D02*
X118150000Y-110700000D01*
X118150000Y-110700000D02*
X118600000Y-110250000D01*
X115017501Y-111832499D02*
X115385002Y-112200000D01*
X115385002Y-112200000D02*
X116250000Y-112200000D01*
X110800000Y-105600000D02*
X110800000Y-106127000D01*
X115197601Y-106847601D02*
X115350000Y-107000000D01*
X110800000Y-106127000D02*
X111355499Y-106682499D01*
X111355499Y-106682499D02*
X115032499Y-106682499D01*
X115032499Y-106682499D02*
X115197601Y-106847601D01*
X110550000Y-110200000D02*
X110550000Y-109698000D01*
X110550000Y-109698000D02*
X111298000Y-108950000D01*
X111298000Y-108950000D02*
X112534474Y-108950000D01*
X112534474Y-108950000D02*
X112750000Y-108950000D01*
D21*
X117925000Y-101900000D02*
X117900000Y-101900000D01*
D20*
X115350000Y-106350000D02*
X115325428Y-106350000D01*
X116650000Y-110250000D02*
X116673642Y-110250000D01*
X116650000Y-110250000D02*
X116655000Y-110250000D01*
X117950000Y-108300000D02*
X117973642Y-108300000D01*
D22*
X109250000Y-108000000D02*
X109925000Y-108000000D01*
X109925000Y-108000000D02*
X110772500Y-107152500D01*
X110772500Y-107152500D02*
X111072289Y-107152500D01*
X111072289Y-107152500D02*
X112191281Y-108271492D01*
X112191281Y-108271492D02*
X112750000Y-108271492D01*
X112750000Y-108271492D02*
X112750000Y-108300000D01*
D21*
X105300000Y-106000000D02*
X107750000Y-106000000D01*
D22*
X109250000Y-106000000D02*
X109925000Y-106000000D01*
X109925000Y-106000000D02*
X110772500Y-106847500D01*
X110772500Y-106847500D02*
X111198611Y-106847500D01*
X111198611Y-106847500D02*
X112317612Y-107966501D01*
X112317612Y-107966501D02*
X112901921Y-107966501D01*
X112901921Y-107966501D02*
X112984211Y-107884211D01*
X112984211Y-107884211D02*
X113400000Y-108300000D01*
D21*
X109250000Y-106000000D02*
X109385000Y-106000000D01*
X105300000Y-108000000D02*
X107750000Y-108000000D01*
D20*
X117950000Y-105700000D02*
X118282499Y-106032499D01*
X118282499Y-106032499D02*
X127405499Y-106032499D01*
X127405499Y-106032499D02*
X130873000Y-109500000D01*
X130873000Y-109500000D02*
X132000000Y-109500000D01*
X117950000Y-105050000D02*
X118282499Y-105382499D01*
X118282499Y-105382499D02*
X129990501Y-105382499D01*
X130873000Y-104500000D02*
X132000000Y-104500000D01*
X129990501Y-105382499D02*
X130873000Y-104500000D01*
X117300000Y-108950000D02*
X117305000Y-108950000D01*
M02*
