M48
;DRILL file {KiCad 4.0.4-stable} date 11/24/16 00:54:11
;FORMAT={3:3/ absolute / metric / suppress trailing zeros}
FMAT,2
METRIC,LZ
T1C0.200
T2C1.000
%
G90
G05
M71
T1
X107Y-1035
X108Y-1102
X1093Y-1122
X1108Y-1019
X1108Y-103
X1108Y-1067
X111Y-107615
X111Y-10895
X113087Y-109287
X11309Y-10799
X11309Y-11179
X114375Y-108649
X11504Y-10234
X11504Y-10604
X11504Y-10669
X11504Y-10734
X11504Y-11179
X11569Y-10234
X11569Y-10604
X116325Y-107325
X116337Y-107987
X11634Y-10234
X11634Y-10604
X116349Y-109925
X11695Y-1041
X116987Y-107337
X116987Y-107987
X116987Y-109937
X1174Y-1009
X117625Y-104725
X11825Y-108
X118275Y-105375
X118287Y-106037
X1189Y-1122
X118915Y-10929
X119015Y-110665
X12055Y-1115
X1206Y-1019
X120675Y-1041
X120675Y-104725
X120675Y-105375
X120675Y-106025
X120675Y-10725
X1225Y-10845
X1305Y-1125
T2
X1027Y-10475
X1027Y-10925
T2
X10345Y-1013G85X10195Y-1013
G05
X10345Y-1127G85X10195Y-1127
G05
T0
M30
